# xmcd
#
# Track frame offsets:
#	150
#	18786
#	36549
#	57636
#	75572
#	93211
#	109663
#	128859
#	146346
#	163497
#	182133
#	199896
#	220983
#	238919
#	256558
#	273010
#	292206
#	309693
#
# Disc length: 4357 seconds
#
# Revision: 2
# Processed by: cddbd v1.5.2PL0 Copyright (c) Steve Scherf et al.
# Submitted via: audiograbber 1.83.01
#
DISCID=0d110312
DTITLE=Various Artist - PHM0403-P
DYEAR=2004
DGENRE=karaoke
TTITLE0=Nick Cannon - Gigolo
TTITLE1=Mary J Blige and Eve - Not Today
TTITLE2=Limp Biskit - Behind Blue Eyes
TTITLE3=Jagged Edge - Walked Outta Heaven
TTITLE4=JC Chasez - Some Girls
TTITLE5=Liz Phair - Extraordinary
TTITLE6=Ruben Studdard - Sorry 2004
TTITLE7=Lillix - Tomorrow
TTITLE8=Dave Matthews Band - Save Me
TTITLE9=Gigolo - Nick Cannon (vocal)
TTITLE10=Not Today - Mary J Blige - Eve (vocal)
TTITLE11=Behind Blue Eyes - Limp Biskit (vocal)
TTITLE12=Walked Outta Heaven - Jagged Edge (vocal)
TTITLE13=Some Girls - JC Chasez (vocal)
TTITLE14=Extraordinary - Liz Phair (vocal)
TTITLE15=Sorry 2004 - Ruben Studdard (vocal)
TTITLE16=Tomorrow - Lillix (vocal)
TTITLE17=Save Me - Dave Matthews (vocal)
EXTD=
EXTT0=
EXTT1=
EXTT2=
EXTT3=
EXTT4=
EXTT5=
EXTT6=
EXTT7=
EXTT8=
EXTT9=
EXTT10=
EXTT11=
EXTT12=
EXTT13=
EXTT14=
EXTT15=
EXTT16=
EXTT17=
PLAYORDER=
